<?xml version="1.0" encoding="UTF-8"?>
<!-- Generated by Pixelmator Pro 3.4.3 -->
<svg width="218" height="197" viewBox="0 0 218 197" xmlns="http://www.w3.org/2000/svg">
    <g id="Group">
        <path id="Path" fill="#ffffff" fill-opacity="0.85" stroke="none" d="M 113.866997 162.722015 L 210.938004 162.722015 C 215.332001 162.722015 218.945007 159.304016 218.945007 154.910004 C 218.945007 150.417999 215.332001 147 210.938004 147 L 113.866997 147 C 109.375 147 105.957001 150.417999 105.957001 154.910004 C 105.957001 159.304016 109.375 162.722015 113.866997 162.722015 Z"/>
        <path id="path1" fill="#ffffff" fill-opacity="0.85" stroke="none" d="M 42.089802 197 C 65.039101 197 84.179703 177.858994 84.179703 154.910004 C 84.179703 131.765015 65.039101 112.722 42.089802 112.722 C 19.042999 112.722 -0 131.863007 -0 154.910004 C -0 177.858994 19.1406 197 42.089802 197 Z M 42.089802 182.741989 C 26.9531 182.741989 14.2578 169.94899 14.2578 154.910004 C 14.2578 139.77301 27.0508 126.980003 42.089802 126.980003 C 57.128899 126.980003 69.921898 139.77301 69.921898 154.910004 C 69.921898 169.94899 57.128899 182.741989 42.089802 182.741989 Z"/>
        <path id="path2" fill="#ffffff" fill-opacity="0.85" stroke="none" d="M 113.866997 49.831604 L 210.938004 49.831604 C 215.332001 49.831604 218.945007 46.315994 218.945007 41.921494 C 218.945007 37.526901 215.332001 34.108994 210.938004 34.108994 L 113.866997 34.108994 C 109.375 34.108994 105.957001 37.526901 105.957001 41.921494 C 105.957001 46.315994 109.375 49.831604 113.866997 49.831604 Z"/>
        <path id="path3" fill="#ffffff" fill-opacity="0.85" stroke="none" d="M 42.089802 84.011299 C 65.039101 84.011299 84.179703 64.772995 84.179703 41.823807 C 84.179703 18.776901 65.039101 -0.266037 42.089802 -0.266037 C 19.042999 -0.266037 -0 18.776901 -0 41.823807 C -0 64.772995 19.1406 84.011299 42.089802 84.011299 Z M 37.109402 64.480103 C 35.058601 64.480103 33.691399 63.405807 32.226601 61.745697 L 21.289101 48.562103 C 20.4102 47.390198 20.019501 46.315994 20.019501 44.753494 C 20.019501 41.921494 22.167999 39.6754 24.804701 39.6754 C 26.6602 39.6754 28.0273 40.456604 29.2969 42.116806 L 36.914101 51.784805 L 54.296902 23.855103 C 55.4688 22.097198 56.933601 21.120697 58.691399 21.120697 C 61.4258 21.120697 63.769501 23.269104 63.769501 25.710495 C 63.769501 27.077698 63.378899 28.249603 62.5 29.714401 L 42.089802 61.745697 C 41.015598 63.503494 39.257801 64.480103 37.109402 64.480103 Z"/>
    </g>
</svg>
